<?xml version="1.0" encoding="UTF-8"?>
<svg xmlns="http://www.w3.org/2000/svg" xmlns:xlink="http://www.w3.org/1999/xlink" width="2835" height="2835" viewBox="0 0 2835 2835">
<path fill-rule="evenodd" fill="rgb(100%, 100%, 100%)" fill-opacity="1" d="M 0 0.351562 L 2834.648438 0.351562 L 2834.648438 2835 L 0 2835 L 0 0.351562 "/>
<path fill-rule="evenodd" fill="rgb(21.946716%, 44.309998%, 75.78125%)" fill-opacity="1" d="M 597.660156 1045.300781 C 879.15625 1196.46875 1072.078125 1354.871094 1151.21875 1547.578125 C 1194.910156 1653.601562 1227.179688 1757.421875 1261.539062 1856.632812 C 1250.589844 1627.039062 1347.921875 1399.5 1496.628906 1223.96875 C 1436.808594 1255.140625 1380.648438 1275.878906 1329.109375 1275.878906 C 1096.539062 1275.878906 1099.210938 1027.589844 597.660156 1045.300781 "/>
<path fill-rule="evenodd" fill="rgb(21.946716%, 44.309998%, 75.78125%)" fill-opacity="1" d="M 1530.519531 732.578125 C 1568.488281 777.738281 1591.390625 835.929688 1591.390625 899.371094 C 1591.390625 1042.210938 1475.410156 1157.5 1332.359375 1157.5 C 1189.261719 1157.5 1073.28125 1042.210938 1073.28125 899.371094 C 1073.28125 857.25 1083.699219 817.808594 1100.839844 782.96875 L 1024.878906 738.820312 C 1014.929688 768.410156 1034.210938 781.929688 1035.828125 816.710938 C 1036.828125 838.5 1027.5 855.101562 1017.601562 869.140625 C 1020.171875 873.328125 1020.171875 877.941406 1017.601562 882.128906 L 988.949219 925.238281 C 985.28125 930.429688 977.476562 932 972.292969 928.328125 C 967.054688 924.671875 965.535156 917.390625 969.097656 911.679688 L 997.75 869.039062 C 1000.320312 864.378906 1005.550781 862.800781 1010.269531 863.851562 C 1018.019531 851.910156 1024.78125 836.871094 1023.78125 817.128906 C 1022.730469 795.859375 999.789062 748.558594 1015.460938 733.53125 L 950.449219 696.128906 L 1287.101562 412.53125 L 1676.238281 650.449219 L 1530.519531 732.578125 "/>
<path fill-rule="evenodd" fill="rgb(0%, 67.771912%, 93.75%)" fill-opacity="1" d="M 1671.480469 2422.820312 C 1411.878906 1731.441406 1469.128906 1318.46875 2236.980469 906.539062 C 1486.199219 880.039062 871.878906 1965.6875 1671.480469 2422.820312 "/>
</svg>
